<?xml version="1.0" encoding="utf-8"?>
<!-- Generator: Adobe Illustrator 18.1.1, SVG Export Plug-In . SVG Version: 6.00 Build 0)  -->
<svg version="1.1" id="Capa_1" xmlns="http://www.w3.org/2000/svg" xmlns:xlink="http://www.w3.org/1999/xlink" x="0px" y="0px"
	 viewBox="0 0 612 792" enable-background="new 0 0 612 792" xml:space="preserve">
<g>
	<path fill="#FFFFFF" d="M522.4,179.6C464.6,121.8,387.7,90,306,90c-81.7,0-158.6,31.8-216.4,89.6S0,314.3,0,396
		c0,81.7,31.8,158.6,89.6,216.4C147.4,670.2,224.3,702,306,702c81.7,0,158.6-31.8,216.4-89.6C580.2,554.6,612,477.7,612,396
		C612,314.3,580.2,237.4,522.4,179.6z M508.9,598.9c-54.2,54.2-126.2,84-202.9,84c-76.6,0-148.7-29.8-202.8-84
		c-54.2-54.2-84-126.2-84-202.9c0-76.6,29.8-148.7,84-202.8c54.2-54.2,126.2-84,202.8-84c76.6,0,148.7,29.8,202.9,84
		c54.2,54.2,84,126.2,84,202.8C592.9,472.6,563,544.7,508.9,598.9z"/>
	<path fill="#FFFFFF" d="M514,227.4c-3.3-4.1-9.3-4.7-13.5-1.4c-4.1,3.3-4.7,9.3-1.4,13.4c35.8,44.1,55.4,99.7,55.4,156.5
		c0,66.4-25.9,128.9-72.8,175.8c-47,47-109.4,72.8-175.8,72.8c-61.3,0-120.1-22.5-165.7-63.3c-3.9-3.5-10-3.2-13.5,0.7
		c-3.5,3.9-3.2,10,0.7,13.5c49.1,44,112.5,68.2,178.5,68.2c71.5,0,138.8-27.8,189.3-78.4c50.6-50.6,78.4-117.8,78.4-189.3
		C573.8,334.8,552.5,274.9,514,227.4z"/>
	<path fill="#FFFFFF" d="M57.4,396c0-137.1,111.5-248.6,248.6-248.6c61.3,0,120.1,22.5,165.7,63.3c3.9,3.5,10,3.2,13.5-0.7
		c3.5-3.9,3.2-10-0.7-13.5c-49.1-44-112.5-68.2-178.5-68.2c-71.5,0-138.8,27.9-189.3,78.4C66.1,257.2,38.3,324.5,38.3,396
		c0,61.2,21.2,121.1,59.7,168.6c1.9,2.3,4.6,3.5,7.4,3.5c2.1,0,4.2-0.7,6-2.1c4.1-3.3,4.7-9.3,1.4-13.5
		C77.1,508.5,57.4,452.9,57.4,396z"/>
	<path fill="#FFFFFF" d="M476.5,322.8c2.4-3.5,2.1-8.2-0.6-11.5c-2.7-3.3-7.3-4.3-11.2-2.6c-0.2,0.1-0.5,0.2-0.7,0.3
		c2.2-4,4.1-8.3,5.5-12.8c1.2-3.8,0-7.9-3.1-10.4c-3.1-2.5-7.4-2.8-10.8-0.7c-9.6,5.7-20,9.9-30.8,12.5
		c-12.9-11.7-29.9-18.3-47.4-18.3c-38.8,0-70.4,31.6-70.4,70.4c0,1.1,0,2.2,0.1,3.3c-41.7-5.1-80.1-26.2-106.9-59
		c-2-2.4-5-3.7-8.2-3.5c-3.1,0.2-5.9,2-7.5,4.7c-6.2,10.7-9.5,22.9-9.5,35.4c0,11.9,3,23.4,8.4,33.5c-1.5,0.1-2.9,0.5-4.2,1.3
		c-2.9,1.7-4.7,4.9-4.7,8.2v0.8c0,21.1,9.5,40.4,24.6,53.5c-0.3,0.3-0.6,0.6-0.9,0.9c-2.2,2.5-3,6-1.9,9.2
		c6.5,20.4,21.8,36.3,41,43.9c-15.5,7.8-32.7,11.9-50.6,11.9c-4.5,0-9-0.3-13.4-0.8c-4.4-0.5-8.6,2.1-10.1,6.3
		c-1.5,4.2,0.1,8.9,3.8,11.3c29.4,18.9,63.4,28.8,98.4,28.8C334,539.4,377,507,401,479.8c29.8-33.9,47-78.7,47-123
		c0-1.1,0-2.2,0-3.2C459.1,344.9,468.7,334.6,476.5,322.8z M432.6,341.2c-2.6,1.9-4.1,5-4,8.2c0.1,2.4,0.2,4.8,0.2,7.4
		c0,39.7-15.4,79.9-42.2,110.3c-21.4,24.2-59.8,53.1-121.3,53.1c-18.8,0-37.4-3.2-54.9-9.5c20.9-3.8,40.5-12.6,57.6-25.9
		c3.2-2.5,4.5-6.7,3.2-10.6c-1.3-3.8-4.8-6.4-8.9-6.5c-16.8-0.3-32.1-8.8-41.3-22.2c4.8-0.3,9.6-1.1,14.2-2.3
		c4.3-1.2,7.2-5.1,7.1-9.5c-0.1-4.4-3.3-8.2-7.7-9.1c-19-3.8-33.9-18.1-39.1-36.2c5.1,1.4,10.4,2.1,15.7,2.3
		c4.3,0.1,8.1-2.6,9.4-6.6c1.3-4.1-0.2-8.5-3.8-10.9c-14.3-9.5-22.8-25.5-22.8-42.7c0-4.4,0.6-8.7,1.6-12.9
		c32,33.1,75.7,53.1,121.9,55.4c3,0.1,5.9-1.1,7.8-3.4c1.9-2.3,2.7-5.4,2-8.3c-0.9-3.8-1.3-7.7-1.3-11.7c0-28.2,23-51.2,51.3-51.2
		c14.1,0,27.8,5.9,37.4,16.2c2.3,2.4,5.6,3.5,8.8,2.8c3.6-0.7,7.2-1.6,10.7-2.6c-1.8,1.4-3.6,2.7-5.6,3.9c-3.9,2.3-5.6,7-4.1,11.3
		c1.5,4.3,5.7,6.9,10.2,6.4c1.6-0.2,3.1-0.4,4.7-0.6C437.2,337.8,435,339.5,432.6,341.2z"/>
</g>
</svg>
