<?xml version="1.0" encoding="utf-8"?>
<!-- Generator: Adobe Illustrator 18.1.1, SVG Export Plug-In . SVG Version: 6.00 Build 0)  -->
<svg version="1.1" id="Layer_1" xmlns="http://www.w3.org/2000/svg" xmlns:xlink="http://www.w3.org/1999/xlink" x="0px" y="0px"
	 viewBox="0 0 612 792" enable-background="new 0 0 612 792" xml:space="preserve">
<g>
	<g>
		<path fill="#FFFFFF" d="M522.4,179.6C464.6,121.8,387.7,90,306,90c-81.3,0-158.9,32.2-216.4,89.6C31.8,237.4,0,314.3,0,396
			c0,63.7,19.4,124.8,56.1,176.6C92,623.3,141.6,661.5,199.6,683c3.9,1.4,8.4,0.3,11.1-3.2c1.3-1.7,1.9-3.9,1.9-6.1V499.1
			c0-5.3-4.3-9.7-9.7-9.7h-80.5v-70.9h80.5c5.3,0,9.7-4.3,9.7-9.7V396c0-84.1,79.8-157.8,170.7-157.8h41.9V309h-41.9
			c-27.3,0-52.1,7.8-69.8,22.1c-19.6,15.8-30,38.2-30,64.9v12.9c0,5.3,4.3,9.7,9.7,9.7h38.1c5.3,0,9.7-4.3,9.7-9.7
			c0-5.3-4.3-9.7-9.7-9.7h-28.4V396c0-49.9,43.4-67.6,80.5-67.6h51.5c5.3,0,9.7-4.3,9.7-9.7v-90.2c0-5.3-4.3-9.7-9.7-9.7h-51.5
			c-47.2,0-95.1,18.8-131.4,51.6c-37.8,34.2-58.7,78.8-58.7,125.6v3.2h-80.5c-5.3,0-9.7,4.3-9.7,9.7v90.2c0,5.3,4.3,9.7,9.7,9.7
			h80.5v150.9C88.7,614.8,19.3,510.6,19.3,396c0-158.1,128.6-286.7,286.7-286.7c157.9,0,286.7,128.8,286.7,286.7
			c0,158.1-128.6,286.7-286.7,286.7c-1.1,0-2.1,0-3.2,0V508.7h132.1c5.3,0,9.7-4.3,9.7-9.7v-90.2c0-5.3-4.3-9.7-9.7-9.7h-56.6
			c-5.3,0-9.7,4.3-9.7,9.7c0,5.3,4.3,9.7,9.7,9.7h46.9v70.9H293.1c-5.3,0-9.7,4.3-9.7,9.7v193c0,5.2,4.1,9.4,9.2,9.7
			c4.8,0.2,9.1,0.3,13.3,0.3c81.7,0,158.6-31.8,216.4-89.6C579.8,554.9,612,477.3,612,396C612,314.3,580.2,237.4,522.4,179.6z"/>
	</g>
</g>
</svg>
