<?xml version="1.0" encoding="utf-8"?>
<!-- Generator: Adobe Illustrator 18.1.1, SVG Export Plug-In . SVG Version: 6.00 Build 0)  -->
<svg version="1.1" id="Capa_1" xmlns="http://www.w3.org/2000/svg" xmlns:xlink="http://www.w3.org/1999/xlink" x="0px" y="0px"
	 viewBox="0 0 612 792" enable-background="new 0 0 612 792" xml:space="preserve">
<g>
	<path fill="#FFFFFF" d="M306,90C137.3,90,0,227.3,0,396s137.3,306,306,306s306-137.3,306-306S474.7,90,306,90z M306,667
		C156.6,667,35,545.4,35,396s121.6-271,271-271s271,121.6,271,271S455.4,667,306,667z"/>
	<path fill="#FFFFFF" d="M417.4,246.2H194.6c-20.4,0-37,16.6-37,37v225.6c0,20.4,16.6,37,37,37h222.9c20.4,0,37-16.6,37-37V283.2
		C454.4,262.8,437.8,246.2,417.4,246.2z M419.4,508.8c0,1.1-0.9,1.9-1.9,1.9H194.6c-1.1,0-1.9-0.9-1.9-1.9V283.2
		c0-1.1,0.9-1.9,1.9-1.9h222.9c1.1,0,1.9,0.9,1.9,1.9V508.8z"/>
	<rect x="357.1" y="307.5" fill="#FFFFFF" width="40.1" height="36.8"/>
	<circle fill="#FFFFFF" cx="306" cy="410.8" r="39.5"/>
	<path fill="#FFFFFF" d="M369.1,410.6c0,34.8-28.2,63.1-63.1,63.1s-63.1-28.2-63.1-63.1l0.1-28.1h-28.2v104.6h182.3V382.6h-28
		L369.1,410.6z"/>
</g>
</svg>
