<?xml version="1.0" encoding="utf-8"?>
<!-- Generator: Adobe Illustrator 18.1.1, SVG Export Plug-In . SVG Version: 6.00 Build 0)  -->
<svg version="1.1" id="Layer_1" xmlns="http://www.w3.org/2000/svg" xmlns:xlink="http://www.w3.org/1999/xlink" x="0px" y="0px"
	 viewBox="0 0 1200 800" enable-background="new 0 0 1200 800" xml:space="preserve">
<g>
	<g>
		<path fill="#FFFFFF" d="M601.3,0c-218.5,0-396,177.5-396,394.7c0,68.9,18.5,135.1,53,196L200,800l213.2-57
			c62.3,33.1,127.2,51.7,188.1,51.7c215.9,0,398.7-182.8,398.7-400S821.2,0,601.3,0z M601.3,768.2c-58.3,0-120.5-18.5-180.1-51.7
			l-5.3-2.6l-178.8,49l49-176.2l-2.6-5.3c-33.1-57-51.7-121.9-51.7-186.8c0-202.6,165.6-368.2,369.5-368.2
			c205.3,0,372.2,165.6,372.2,368.2S802.6,768.2,601.3,768.2z"/>
		<path fill="#FFFFFF" d="M601.3,66.2c-181.5,0-329.8,147-329.8,328.5c0,64.9,18.5,125.8,51.7,180.1l5.3,6.6l-35.8,125.8l129.8-33.1
			l6.6,4c54.3,33.1,113.9,50.3,172.2,50.3c182.8,0,332.4-149.7,332.4-333.8C933.8,213.2,784.1,66.2,601.3,66.2z M600,703.3
			c-53,0-107.3-17.2-157.6-47.7L426.5,645l-96.7,23.8l26.5-92.7l-10.6-17.2c-31.8-49-47.7-106-47.7-164.2
			c0-165.6,136.4-302,303.3-302c168.2,0,306,136.4,306,302C907.3,564.2,769.5,702,600,703.3z"/>
		<path fill="#FFFFFF" d="M800,467.6l-83.4-38.4c-11.9-5.3-23.8-1.3-31.8,7.9L653,478.1c-23.8-9.3-90.1-38.4-128.5-109.9l29.1-34.4
			c6.6-7.9,7.9-18.5,4-27.8l-35.8-84.8c-4-9.3-11.9-15.9-22.5-15.9l-25.2-1.3c-10.6,0-22.5,2.6-30.5,10.6
			c-11.9,10.6-34.4,33.1-41.1,63.6c-9.3,43.7,5.3,95.4,42.4,145.7c22.5,31.8,91.4,125.8,223.8,162.9c13.2,4,26.5,5.3,38.4,5.3
			c22.5,0,43.7-6.6,62.3-17.2c21.2-13.2,35.8-35.8,41.1-59.6l4-18.5C817.2,484.8,810.6,472.8,800,467.6z M782.8,508.6
			c-4,17.2-14.6,33.1-29.1,42.4c-22.5,14.6-49,17.2-78.1,9.3c-123.2-34.4-188.1-123.2-209.3-152.3c-31.8-43.7-45-88.7-37.1-124.5
			c5.3-23.8,22.5-41.1,33.1-50.3c2.6-2.6,6.6-4,10.6-4l26.5,2.6l35.8,83.4L503.3,351c-5.3,6.6-6.6,17.2-2.6,25.2
			c43.7,84.8,123.2,117.9,147,125.8c9.3,2.6,18.5,0,25.2-7.9l31.8-42.4l83.4,38.4L782.8,508.6z"/>
	</g>
</g>
</svg>
